<svg xmlns="http://www.w3.org/2000/svg" version="1.1" xmlns:xlink="http://www.w3.org/1999/xlink" xmlns:svgjs="http://svgjs.com/svgjs" width="1000" height="1000"><rect width="1000" height="1000" rx="350" ry="350" fill="#f4ebeb"></rect><g transform="matrix(2.2222222222222223,0,0,2.2222222222222223,0.19568125406897252,-3.192648993598141)"><svg xmlns="http://www.w3.org/2000/svg" version="1.1" xmlns:xlink="http://www.w3.org/1999/xlink" xmlns:svgjs="http://svgjs.com/svgjs" width="450" height="450"><svg version="1.1" id="Layer_1" xmlns="http://www.w3.org/2000/svg" xmlns:xlink="http://www.w3.org/1999/xlink" x="0px" y="0px" viewBox="0 0 450 450" style="enable-background:new 0 0 450 450;" xml:space="preserve">
<style type="text/css">
	.st0{fill:#FFA500;}
	.st1{fill:url(#SVGID_1_);}
	.st2{fill:url(#SVGID_2_);}
	.st3{fill:url(#SVGID_3_);}
	.st4{fill:url(#SVGID_4_);}
	.st5{fill:url(#SVGID_5_);}
</style>
<path class="st0" d="M262.1,233c0,0,26.9,1.8,31.5-21.4c4.4-21.7-5.8-33.4-5.8-33.4s31.9,6.5,51.9,38.2s21.9,81,2.7,115.4
	c-19.1,34.5-53.4,66.2-110.9,68.8s-100.5-34.8-116.2-60s-22.8-52-21.2-77.5c1.6-25.5,9.1-41.9,14.8-54.5s10.9-22.1,11.5-36.3
	s-1.8-21.3-4.7-24.9c0,0,18.7,4.1,29.4,17.6c10.7,13.5,11.8,21.7,11.1,31c-0.7,9.3-3.4,16.8-12,15.3c0,0,2.2,4.1,14.5,1.6
	c12.3-2.4,18.8-16.9,20.8-23.8c2-6.9,1.2-19.6-0.1-31.5c-1.4-11.9-1.1-30.1,4.1-45.5c5.1-15.4,18.3-30.2,31-40.6
	s34.1-18.4,58.3-16.8c0,0-11.6,5.9-18.6,22c-7,16.1-7.9,34.5-3.2,48.2s10.1,22.8,13.8,30.6c3.7,7.8,9.8,24,10.1,38.8
	C275.3,209,271.7,223.8,262.1,233z"></path>
</svg></svg></g></svg>