<svg xmlns="http://www.w3.org/2000/svg" viewBox="11 138.17 561.5650177001953 298.6609998474121"> <svg xmlns="http://www.w3.org/2000/svg" viewBox="0 0 144.62899780273438 118.90499877929688" height="158.66090802492326" width="192.9857177734375" y="208.17" x="81" preserveAspectRatio="xMinYMin" style="overflow: visible;"><polygon class="a" points="90.632 60.634 84.333 82.87 71.583 88.532 70.083 71.433 90.632 60.634" style="fill: #157ae6;"></polygon><polygon class="b" points="85.832 47.435 70.083 71.433 90.632 60.634 85.832 47.435" style="fill: #1991fa;"></polygon><polygon class="c" points="65.134 23.886 40.273 5.887 40.273 5.887 61.834 43.685 61.834 43.685 65.134 23.886" style="fill: #5ab7fa;"></polygon><polygon class="a" points="70.083 71.433 64.459 67.796 51.802 48.303 61.834 43.685 70.083 71.433" style="fill: #157ae6;"></polygon><polygon class="d" points="85.832 47.435 61.834 43.685 70.083 71.433 85.832 47.435" style="fill: #48aafa;"></polygon><polygon class="e" points="65.134 23.886 85.832 47.435 61.834 43.685 65.134 23.886" style="fill: #79c8fc;"></polygon><polygon class="f" points="70.083 71.433 61.834 91.082 59.547 114.931 29.698 118.905 64.459 67.796 70.083 71.433" style="fill: #0830c2;"></polygon><polygon class="g" points="70.083 71.433 71.583 88.532 59.547 114.931 61.834 91.082 70.083 71.433" style="fill: #0f61db;"></polygon><polygon class="b" points="90.632 60.634 101.507 68.208 84.333 82.87 90.632 60.634" style="fill: #1991fa;"></polygon><polygon class="c" points="101.507 68.208 96.927 50.118 88.075 39.424 85.832 47.435 90.632 60.634 101.507 68.208" style="fill: #5ab7fa;"></polygon><polygon class="g" points="88.075 39.424 67.267 13.499 56.848 5.973 65.134 23.886 85.832 47.435 88.075 39.424" style="fill: #0f61db;"></polygon><polygon class="d" points="109.358 36.71 144.629 40.235 111.165 42.194 101.507 68.208 96.927 50.118 109.358 36.71" style="fill: #48aafa;"></polygon><polygon class="e" points="96.927 50.118 109.358 36.71 102.013 32.529 92.863 32.585 88.075 39.424 96.927 50.118" style="fill: #79c8fc;"></polygon><polygon class="h" points="61.834 91.082 29.698 118.905 59.547 114.931 61.834 91.082" style="fill: #0b41d6;"></polygon><polygon class="h" points="65.134 23.886 88.075 39.424 85.832 47.435 65.134 23.886" style="fill: #0b41d6;"></polygon><polygon class="b" points="61.834 43.685 40.273 5.887 0 0 51.802 48.303 61.834 43.685" style="fill: #1991fa;"></polygon><polygon class="d" points="61.834 43.685 0 0 40.273 5.887 61.834 43.685" style="fill: #48aafa;"></polygon></svg> <svg y="353.421" viewBox="0.3500000238418579 3.9100000858306885 233.1999969482422 13.40999984741211" x="212.315" height="13.40999984741211" width="233.1999969482422" style="overflow: visible;"><g fill="#48aafa" fill-opacity="1" style=""><path d="M4.61 14.35L3.32 14.35Q2.39 14.35 1.91 13.87Q1.43 13.38 1.43 12.49L1.43 12.49L1.43 8.47L0.35 8.47L0.35 7.04L0.91 7.04Q1.32 7.04 1.46 6.85Q1.61 6.66 1.61 6.29L1.61 6.29L1.61 5.04L3.22 5.04L3.22 7.04L4.72 7.04L4.72 8.47L3.22 8.47L3.22 12.92L4.61 12.92L4.61 14.35ZM12.53 14.52L12.53 14.52Q11.72 14.52 11.08 14.24Q10.44 13.97 10.00 13.47Q9.56 12.98 9.32 12.27Q9.09 11.56 9.09 10.68L9.09 10.68Q9.09 9.81 9.32 9.11Q9.55 8.41 9.98 7.92Q10.42 7.42 11.05 7.15Q11.68 6.87 12.47 6.87L12.47 6.87Q13.33 6.87 13.96 7.17Q14.59 7.46 14.99 7.97Q15.40 8.47 15.60 9.13Q15.81 9.80 15.81 10.56L15.81 10.56L15.81 11.14L10.95 11.14L10.95 11.33Q10.95 12.12 11.40 12.61Q11.84 13.09 12.73 13.09L12.73 13.09Q13.40 13.09 13.82 12.81Q14.25 12.53 14.59 12.10L14.59 12.10L15.55 13.17Q15.11 13.80 14.33 14.16Q13.55 14.52 12.53 14.52ZM12.50 8.22L12.50 8.22Q11.79 8.22 11.37 8.69Q10.95 9.17 10.95 9.93L10.95 9.93L10.95 10.04L13.94 10.04L13.94 9.91Q13.94 9.16 13.57 8.69Q13.20 8.22 12.50 8.22ZM23.63 14.52L23.63 14.52Q22.82 14.52 22.19 14.25Q21.56 13.99 21.13 13.48Q20.71 12.98 20.48 12.27Q20.26 11.56 20.26 10.68L20.26 10.68Q20.26 9.80 20.48 9.10Q20.71 8.40 21.13 7.90Q21.56 7.41 22.19 7.14Q22.82 6.87 23.63 6.87L23.63 6.87Q24.74 6.87 25.46 7.36Q26.18 7.85 26.50 8.72L26.50 8.72L25.03 9.38Q24.91 8.92 24.56 8.62Q24.22 8.32 23.63 8.32L23.63 8.32Q22.88 8.32 22.50 8.79Q22.13 9.27 22.13 10.04L22.13 10.04L22.13 11.37Q22.13 12.14 22.50 12.61Q22.88 13.08 23.63 13.08L23.63 13.08Q24.28 13.08 24.63 12.75Q24.98 12.42 25.17 11.93L25.17 11.93L26.54 12.59Q26.18 13.55 25.44 14.04Q24.70 14.52 23.63 14.52ZM31.29 14.35L31.29 3.99L33.08 3.99L33.08 8.26L33.15 8.26Q33.38 7.67 33.86 7.27Q34.34 6.87 35.20 6.87L35.20 6.87Q36.33 6.87 36.93 7.62Q37.53 8.36 37.53 9.73L37.53 9.73L37.53 14.35L35.74 14.35L35.74 9.91Q35.74 9.13 35.46 8.74Q35.18 8.34 34.54 8.34L34.54 8.34Q34.26 8.34 34.00 8.42Q33.74 8.50 33.54 8.64Q33.33 8.79 33.21 9.01Q33.08 9.23 33.08 9.52L33.08 9.52L33.08 14.35L31.29 14.35ZM44.67 14.35L42.88 14.35L42.88 7.04L44.67 7.04L44.67 8.26L44.74 8.26Q44.97 7.67 45.45 7.27Q45.93 6.87 46.79 6.87L46.79 6.87Q47.92 6.87 48.52 7.62Q49.13 8.36 49.13 9.73L49.13 9.73L49.13 14.35L47.33 14.35L47.33 9.91Q47.33 9.13 47.05 8.74Q46.77 8.34 46.13 8.34L46.13 8.34Q45.85 8.34 45.59 8.42Q45.33 8.50 45.13 8.64Q44.93 8.79 44.80 9.01Q44.67 9.23 44.67 9.52L44.67 9.52L44.67 14.35ZM57.37 14.52L57.37 14.52Q56.59 14.52 55.96 14.25Q55.34 13.99 54.90 13.48Q54.46 12.98 54.22 12.27Q53.98 11.56 53.98 10.68L53.98 10.68Q53.98 9.80 54.22 9.10Q54.46 8.40 54.90 7.90Q55.34 7.41 55.96 7.14Q56.59 6.87 57.37 6.87L57.37 6.87Q58.16 6.87 58.79 7.14Q59.42 7.41 59.86 7.90Q60.30 8.40 60.54 9.10Q60.77 9.80 60.77 10.68L60.77 10.68Q60.77 11.56 60.54 12.27Q60.30 12.98 59.86 13.48Q59.42 13.99 58.79 14.25Q58.16 14.52 57.37 14.52ZM57.37 13.08L57.37 13.08Q58.09 13.08 58.49 12.64Q58.90 12.21 58.90 11.37L58.90 11.37L58.90 10.01Q58.90 9.18 58.49 8.75Q58.09 8.32 57.37 8.32L57.37 8.32Q56.67 8.32 56.27 8.75Q55.86 9.18 55.86 10.01L55.86 10.01L55.86 11.37Q55.86 12.21 56.27 12.64Q56.67 13.08 57.37 13.08ZM68.47 14.35L67.51 14.35Q66.58 14.35 66.15 13.89Q65.72 13.43 65.72 12.59L65.72 12.59L65.72 3.99L67.51 3.99L67.51 12.92L68.47 12.92L68.47 14.35ZM76.09 14.52L76.09 14.52Q75.31 14.52 74.68 14.25Q74.06 13.99 73.62 13.48Q73.18 12.98 72.94 12.27Q72.70 11.56 72.70 10.68L72.70 10.68Q72.70 9.80 72.94 9.10Q73.18 8.40 73.62 7.90Q74.06 7.41 74.68 7.14Q75.31 6.87 76.09 6.87L76.09 6.87Q76.87 6.87 77.50 7.14Q78.13 7.41 78.57 7.90Q79.02 8.40 79.25 9.10Q79.49 9.80 79.49 10.68L79.49 10.68Q79.49 11.56 79.25 12.27Q79.02 12.98 78.57 13.48Q78.13 13.99 77.50 14.25Q76.87 14.52 76.09 14.52ZM76.09 13.08L76.09 13.08Q76.80 13.08 77.21 12.64Q77.62 12.21 77.62 11.37L77.62 11.37L77.62 10.01Q77.62 9.18 77.21 8.75Q76.80 8.32 76.09 8.32L76.09 8.32Q75.39 8.32 74.98 8.75Q74.58 9.18 74.58 10.01L74.58 10.01L74.58 11.37Q74.58 12.21 74.98 12.64Q75.39 13.08 76.09 13.08ZM91.03 14.97L91.03 14.97Q91.03 15.54 90.83 15.98Q90.62 16.42 90.16 16.72Q89.70 17.01 88.97 17.16Q88.24 17.32 87.19 17.32L87.19 17.32Q86.27 17.32 85.62 17.20Q84.98 17.08 84.57 16.86Q84.15 16.65 83.97 16.32Q83.79 16.00 83.79 15.60L83.79 15.60Q83.79 14.98 84.13 14.64Q84.48 14.29 85.09 14.20L85.09 14.20L85.09 14.04Q84.64 13.93 84.40 13.60Q84.15 13.27 84.15 12.82L84.15 12.82Q84.15 12.54 84.27 12.33Q84.38 12.11 84.57 11.96Q84.76 11.80 84.99 11.70Q85.23 11.59 85.50 11.54L85.50 11.54L85.50 11.48Q84.83 11.17 84.50 10.63Q84.17 10.08 84.17 9.35L84.17 9.35Q84.17 8.23 84.94 7.55Q85.71 6.87 87.19 6.87L87.19 6.87Q87.53 6.87 87.86 6.92Q88.19 6.96 88.47 7.06L88.47 7.06L88.47 6.82Q88.47 5.75 89.50 5.75L89.50 5.75L90.64 5.75L90.64 7.13L89.08 7.13L89.08 7.32Q89.66 7.64 89.94 8.16Q90.22 8.68 90.22 9.35L90.22 9.35Q90.22 10.46 89.45 11.13Q88.69 11.80 87.19 11.80L87.19 11.80Q86.55 11.80 86.07 11.68L86.07 11.68Q85.86 11.77 85.71 11.93Q85.55 12.10 85.55 12.33L85.55 12.33Q85.55 12.88 86.51 12.88L86.51 12.88L88.47 12.88Q89.81 12.88 90.42 13.43Q91.03 13.99 91.03 14.97ZM89.35 15.18L89.35 15.18Q89.35 14.83 89.07 14.63Q88.79 14.43 88.10 14.43L88.10 14.43L85.61 14.43Q85.23 14.71 85.23 15.19L85.23 15.19Q85.23 15.61 85.58 15.85Q85.93 16.09 86.77 16.09L86.77 16.09L87.67 16.09Q88.55 16.09 88.95 15.86Q89.35 15.64 89.35 15.18ZM87.19 10.58L87.19 10.58Q88.51 10.58 88.51 9.46L88.51 9.46L88.51 9.23Q88.51 8.11 87.19 8.11L87.19 8.11Q85.88 8.11 85.88 9.23L85.88 9.23L85.88 9.46Q85.88 10.58 87.19 10.58ZM98.70 10.91L99.97 7.04L101.65 7.04L98.71 15.65Q98.57 16.04 98.40 16.33Q98.22 16.62 97.99 16.80Q97.75 16.98 97.41 17.07Q97.08 17.15 96.63 17.15L96.63 17.15L95.55 17.15L95.55 15.72L96.87 15.72L97.20 14.70L94.58 7.04L96.36 7.04L97.64 10.91L98.11 12.75L98.20 12.75L98.70 10.91ZM114.16 14.35L112.14 7.04L113.86 7.04L114.60 10.05L115.18 12.56L115.23 12.56L115.91 10.05L116.76 7.04L118.38 7.04L119.27 10.05L119.95 12.56L120.01 12.56L120.58 10.05L121.31 7.04L122.98 7.04L120.97 14.35L119.04 14.35L118.10 11.13L117.56 9.14L117.52 9.14L116.98 11.13L116.06 14.35L114.16 14.35ZM128.58 5.98L128.58 5.98Q128.02 5.98 127.77 5.73Q127.53 5.47 127.53 5.08L127.53 5.08L127.53 4.80Q127.53 4.41 127.77 4.16Q128.02 3.91 128.58 3.91L128.58 3.91Q129.12 3.91 129.37 4.16Q129.63 4.41 129.63 4.80L129.63 4.80L129.63 5.08Q129.63 5.47 129.37 5.73Q129.12 5.98 128.58 5.98ZM127.68 14.35L127.68 7.04L129.47 7.04L129.47 14.35L127.68 14.35ZM138.47 14.35L137.19 14.35Q136.26 14.35 135.78 13.87Q135.30 13.38 135.30 12.49L135.30 12.49L135.30 8.47L134.22 8.47L134.22 7.04L134.78 7.04Q135.18 7.04 135.33 6.85Q135.48 6.66 135.48 6.29L135.48 6.29L135.48 5.04L137.09 5.04L137.09 7.04L138.59 7.04L138.59 8.47L137.09 8.47L137.09 12.92L138.47 12.92L138.47 14.35ZM143.50 14.35L143.50 3.99L145.29 3.99L145.29 8.26L145.36 8.26Q145.59 7.67 146.07 7.27Q146.55 6.87 147.41 6.87L147.41 6.87Q148.54 6.87 149.14 7.62Q149.74 8.36 149.74 9.73L149.74 9.73L149.74 14.35L147.95 14.35L147.95 9.91Q147.95 9.13 147.67 8.74Q147.39 8.34 146.75 8.34L146.75 8.34Q146.47 8.34 146.21 8.42Q145.95 8.50 145.75 8.64Q145.54 8.79 145.42 9.01Q145.29 9.23 145.29 9.52L145.29 9.52L145.29 14.35L143.50 14.35ZM161.76 17.15L161.76 7.04L163.55 7.04L163.55 8.25L163.60 8.25Q163.80 7.62 164.35 7.24Q164.89 6.87 165.62 6.87L165.62 6.87Q167.02 6.87 167.76 7.86Q168.49 8.85 168.49 10.68L168.49 10.68Q168.49 12.53 167.76 13.52Q167.02 14.52 165.62 14.52L165.62 14.52Q164.89 14.52 164.35 14.14Q163.81 13.76 163.60 13.13L163.60 13.13L163.55 13.13L163.55 17.15L161.76 17.15ZM165.05 13.03L165.05 13.03Q165.75 13.03 166.18 12.57Q166.61 12.11 166.61 11.33L166.61 11.33L166.61 10.07Q166.61 9.28 166.18 8.81Q165.75 8.34 165.05 8.34L165.05 8.34Q164.40 8.34 163.98 8.67Q163.55 8.99 163.55 9.52L163.55 9.52L163.55 11.84Q163.55 12.42 163.98 12.73Q164.40 13.03 165.05 13.03ZM177.88 14.35L177.88 13.13L177.81 13.13Q177.72 13.41 177.56 13.66Q177.39 13.90 177.15 14.10Q176.90 14.29 176.56 14.41Q176.22 14.52 175.77 14.52L175.77 14.52Q174.64 14.52 174.03 13.78Q173.43 13.03 173.43 11.66L173.43 11.66L173.43 7.04L175.22 7.04L175.22 11.48Q175.22 12.24 175.52 12.63Q175.81 13.03 176.46 13.03L176.46 13.03Q176.72 13.03 176.98 12.96Q177.24 12.89 177.44 12.75Q177.63 12.60 177.76 12.38Q177.88 12.17 177.88 11.87L177.88 11.87L177.88 7.04L179.68 7.04L179.68 14.35L177.88 14.35ZM186.90 14.35L185.11 14.35L185.11 7.04L186.90 7.04L186.90 8.55L186.97 8.55Q187.04 8.26 187.19 7.99Q187.33 7.71 187.57 7.50Q187.81 7.29 188.14 7.17Q188.47 7.04 188.90 7.04L188.90 7.04L189.29 7.04L189.29 8.74L188.73 8.74Q187.82 8.74 187.36 9.00Q186.90 9.27 186.90 9.87L186.90 9.87L186.90 14.35ZM193.97 17.15L193.97 7.04L195.76 7.04L195.76 8.25L195.82 8.25Q196.01 7.62 196.56 7.24Q197.11 6.87 197.83 6.87L197.83 6.87Q199.23 6.87 199.97 7.86Q200.70 8.85 200.70 10.68L200.70 10.68Q200.70 12.53 199.97 13.52Q199.23 14.52 197.83 14.52L197.83 14.52Q197.11 14.52 196.57 14.14Q196.03 13.76 195.82 13.13L195.82 13.13L195.76 13.13L195.76 17.15L193.97 17.15ZM197.26 13.03L197.26 13.03Q197.96 13.03 198.39 12.57Q198.83 12.11 198.83 11.33L198.83 11.33L198.83 10.07Q198.83 9.28 198.39 8.81Q197.96 8.34 197.26 8.34L197.26 8.34Q196.62 8.34 196.19 8.67Q195.76 8.99 195.76 9.52L195.76 9.52L195.76 11.84Q195.76 12.42 196.19 12.73Q196.62 13.03 197.26 13.03ZM208.63 14.52L208.63 14.52Q207.84 14.52 207.22 14.25Q206.60 13.99 206.16 13.48Q205.72 12.98 205.48 12.27Q205.24 11.56 205.24 10.68L205.24 10.68Q205.24 9.80 205.48 9.10Q205.72 8.40 206.16 7.90Q206.60 7.41 207.22 7.14Q207.84 6.87 208.63 6.87L208.63 6.87Q209.41 6.87 210.04 7.14Q210.67 7.41 211.11 7.90Q211.55 8.40 211.79 9.10Q212.03 9.80 212.03 10.68L212.03 10.68Q212.03 11.56 211.79 12.27Q211.55 12.98 211.11 13.48Q210.67 13.99 210.04 14.25Q209.41 14.52 208.63 14.52ZM208.63 13.08L208.63 13.08Q209.34 13.08 209.75 12.64Q210.15 12.21 210.15 11.37L210.15 11.37L210.15 10.01Q210.15 9.18 209.75 8.75Q209.34 8.32 208.63 8.32L208.63 8.32Q207.93 8.32 207.52 8.75Q207.12 9.18 207.12 10.01L207.12 10.01L207.12 11.37Q207.12 12.21 207.52 12.64Q207.93 13.08 208.63 13.08ZM219.37 14.52L219.37 14.52Q218.32 14.52 217.60 14.16Q216.89 13.80 216.34 13.17L216.34 13.17L217.43 12.11Q217.84 12.57 218.32 12.84Q218.81 13.10 219.44 13.10L219.44 13.10Q220.08 13.10 220.37 12.88Q220.65 12.66 220.65 12.26L220.65 12.26Q220.65 11.94 220.45 11.75Q220.25 11.56 219.76 11.49L219.76 11.49L219.03 11.40Q217.84 11.24 217.22 10.72Q216.59 10.19 216.59 9.18L216.59 9.18Q216.59 8.65 216.79 8.22Q216.99 7.80 217.35 7.50Q217.71 7.20 218.23 7.03Q218.74 6.87 219.37 6.87L219.37 6.87Q219.90 6.87 220.31 6.95Q220.72 7.03 221.06 7.17Q221.40 7.32 221.68 7.54Q221.96 7.76 222.22 8.02L222.22 8.02L221.17 9.07Q220.85 8.74 220.40 8.51Q219.95 8.29 219.42 8.29L219.42 8.29Q218.83 8.29 218.58 8.50Q218.32 8.71 218.32 9.04L218.32 9.04Q218.32 9.41 218.53 9.60Q218.75 9.79 219.27 9.87L219.27 9.87L220.01 9.97Q222.38 10.30 222.38 12.12L222.38 12.12Q222.38 12.66 222.16 13.10Q221.94 13.54 221.55 13.85Q221.16 14.17 220.61 14.34Q220.05 14.52 219.37 14.52ZM230.27 14.52L230.27 14.52Q229.46 14.52 228.82 14.24Q228.19 13.97 227.75 13.47Q227.30 12.98 227.07 12.27Q226.83 11.56 226.83 10.68L226.83 10.68Q226.83 9.81 227.06 9.11Q227.29 8.41 227.72 7.92Q228.16 7.42 228.79 7.15Q229.42 6.87 230.22 6.87L230.22 6.87Q231.07 6.87 231.70 7.17Q232.33 7.46 232.74 7.97Q233.14 8.47 233.35 9.13Q233.55 9.80 233.55 10.56L233.55 10.56L233.55 11.14L228.69 11.14L228.69 11.33Q228.69 12.12 229.14 12.61Q229.59 13.09 230.47 13.09L230.47 13.09Q231.14 13.09 231.57 12.81Q231.99 12.53 232.33 12.10L232.33 12.10L233.30 13.17Q232.85 13.80 232.07 14.16Q231.29 14.52 230.27 14.52ZM230.24 8.22L230.24 8.22Q229.53 8.22 229.11 8.69Q228.69 9.17 228.69 9.93L228.69 9.93L228.69 10.04L231.69 10.04L231.69 9.91Q231.69 9.16 231.32 8.69Q230.94 8.22 230.24 8.22Z" transform="translate(0, 0)"></path></g></svg> <svg y="308.7205505371094" viewBox="1.6200000047683716 12.829999923706055 347.3000183105469 33.83000183105469" x="155.26499938964844" height="33.83000183105469" width="347.3000183105469" style="overflow: visible;"><g fill="#ffffff" fill-opacity="1" style=""><path d="M12.64 46.66L12.64 46.66Q9.99 46.66 7.92 45.79Q5.85 44.91 4.46 43.31Q3.06 41.72 2.34 39.42Q1.62 37.13 1.62 34.29L1.62 34.29Q1.62 31.45 2.34 29.18Q3.06 26.91 4.46 25.29Q5.85 23.67 7.92 22.82Q9.99 21.96 12.64 21.96L12.64 21.96Q16.25 21.96 18.65 23.58Q21.06 25.20 22.09 28.13L22.09 28.13L16.70 30.46Q16.38 29.12 15.39 28.17Q14.40 27.23 12.64 27.23L12.64 27.23Q10.62 27.23 9.58 28.55Q8.55 29.88 8.55 32.13L8.55 32.13L8.55 36.54Q8.55 38.79 9.58 40.09Q10.62 41.40 12.64 41.40L12.64 41.40Q14.45 41.40 15.50 40.43Q16.56 39.47 17.05 37.89L17.05 37.89L22.23 40.14Q21.06 43.52 18.61 45.09Q16.16 46.66 12.64 46.66ZM37.73 46.66L37.73 46.66Q35.12 46.66 33.07 45.81Q31.02 44.95 29.61 43.34Q28.19 41.72 27.42 39.42Q26.66 37.13 26.66 34.29L26.66 34.29Q26.66 31.45 27.42 29.16Q28.19 26.87 29.61 25.27Q31.02 23.67 33.07 22.82Q35.12 21.96 37.73 21.96L37.73 21.96Q40.34 21.96 42.39 22.82Q44.44 23.67 45.85 25.27Q47.27 26.87 48.03 29.16Q48.80 31.45 48.80 34.29L48.80 34.29Q48.80 37.13 48.03 39.42Q47.27 41.72 45.85 43.34Q44.44 44.95 42.39 45.81Q40.34 46.66 37.73 46.66ZM37.73 41.40L37.73 41.40Q39.71 41.40 40.79 40.19Q41.87 38.97 41.87 36.72L41.87 36.72L41.87 31.91Q41.87 29.66 40.79 28.44Q39.71 27.23 37.73 27.23L37.73 27.23Q35.75 27.23 34.67 28.44Q33.59 29.66 33.59 31.91L33.59 31.91L33.59 36.72Q33.59 38.97 34.67 40.19Q35.75 41.40 37.73 41.40ZM70.02 46.13L70.02 42.16L69.79 42.16Q69.52 43.11 68.94 43.94Q68.35 44.77 67.52 45.38Q66.69 45.99 65.63 46.33Q64.57 46.66 63.45 46.66L63.45 46.66Q58.95 46.66 56.65 43.49Q54.36 40.32 54.36 34.29L54.36 34.29Q54.36 28.26 56.65 25.11Q58.95 21.96 63.45 21.96L63.45 21.96Q65.74 21.96 67.52 23.22Q69.30 24.48 69.79 26.46L69.79 26.46L70.02 26.46L70.02 12.83L76.67 12.83L76.67 46.13L70.02 46.13ZM65.65 41.27L65.65 41.27Q67.54 41.27 68.78 40.34Q70.02 39.42 70.02 37.80L70.02 37.80L70.02 30.83Q70.02 29.21 68.78 28.28Q67.54 27.36 65.65 27.36L65.65 27.36Q63.76 27.36 62.52 28.69Q61.29 30.02 61.29 32.27L61.29 32.27L61.29 36.36Q61.29 38.61 62.52 39.94Q63.76 41.27 65.65 41.27ZM106.03 46.13L102.34 46.13Q100.55 46.13 99.35 45Q98.16 43.88 97.84 41.98L97.84 41.98L97.58 41.98Q97.03 44.28 95.19 45.47Q93.34 46.66 90.64 46.66L90.64 46.66Q87.09 46.66 85.20 44.77Q83.31 42.88 83.31 39.78L83.31 39.78Q83.31 36.05 86.03 34.22Q88.75 32.40 93.44 32.40L93.44 32.40L97.17 32.40L97.17 30.91Q97.17 29.21 96.27 28.19Q95.37 27.18 93.25 27.18L93.25 27.18Q91.28 27.18 90.11 28.04Q88.94 28.89 88.17 29.97L88.17 29.97L84.21 26.46Q85.65 24.35 87.83 23.15Q90.02 21.96 93.75 21.96L93.75 21.96Q98.79 21.96 101.31 24.16Q103.83 26.37 103.83 30.60L103.83 30.60L103.83 40.95L106.03 40.95L106.03 46.13ZM93.12 42.03L93.12 42.03Q94.78 42.03 95.98 41.31Q97.17 40.59 97.17 38.97L97.17 38.97L97.17 36.18L93.93 36.18Q90.02 36.18 90.02 38.84L90.02 38.84L90.02 39.51Q90.02 40.81 90.83 41.42Q91.64 42.03 93.12 42.03ZM117.13 46.13L110.20 46.13L117.98 34.11L110.29 22.50L117.84 22.50L122.26 29.93L122.44 29.93L126.71 22.50L133.73 22.50L125.90 34.34L133.78 46.13L126.22 46.13L121.67 38.43L121.49 38.43L117.13 46.13ZM160.32 46.66L160.32 46.66Q156.90 46.66 154.56 45.56Q152.22 44.46 150.38 42.44L150.38 42.44L154.29 38.48Q155.55 39.87 157.08 40.68Q158.61 41.49 160.55 41.49L160.55 41.49Q162.53 41.49 163.29 40.88Q164.06 40.27 164.06 39.24L164.06 39.24Q164.06 37.58 161.67 37.26L161.67 37.26L159.11 36.95Q151.14 35.95 151.14 29.66L151.14 29.66Q151.14 27.95 151.79 26.53Q152.45 25.11 153.64 24.10Q154.83 23.09 156.52 22.52Q158.21 21.96 160.32 21.96L160.32 21.96Q162.17 21.96 163.58 22.21Q165 22.46 166.10 22.93Q167.21 23.40 168.13 24.10Q169.05 24.80 169.95 25.65L169.95 25.65L166.13 29.57Q165 28.44 163.58 27.79Q162.17 27.14 160.68 27.14L160.68 27.14Q158.97 27.14 158.25 27.68Q157.53 28.21 157.53 29.12L157.53 29.12Q157.53 30.06 158.05 30.58Q158.56 31.09 160.01 31.32L160.01 31.32L162.66 31.68Q170.45 32.72 170.45 38.79L170.45 38.79Q170.45 40.50 169.73 41.94Q169.01 43.38 167.68 44.44Q166.35 45.49 164.48 46.08Q162.62 46.66 160.32 46.66ZM186.58 46.66L186.58 46.66Q183.97 46.66 181.92 45.81Q179.87 44.95 178.45 43.34Q177.04 41.72 176.27 39.42Q175.51 37.13 175.51 34.29L175.51 34.29Q175.51 31.45 176.27 29.16Q177.04 26.87 178.45 25.27Q179.87 23.67 181.92 22.82Q183.97 21.96 186.58 21.96L186.58 21.96Q189.19 21.96 191.23 22.82Q193.28 23.67 194.70 25.27Q196.12 26.87 196.88 29.16Q197.65 31.45 197.65 34.29L197.65 34.29Q197.65 37.13 196.88 39.42Q196.12 41.72 194.70 43.34Q193.28 44.95 191.23 45.81Q189.19 46.66 186.58 46.66ZM186.58 41.40L186.58 41.40Q188.56 41.40 189.64 40.19Q190.72 38.97 190.72 36.72L190.72 36.72L190.72 31.91Q190.72 29.66 189.64 28.44Q188.56 27.23 186.58 27.23L186.58 27.23Q184.60 27.23 183.52 28.44Q182.44 29.66 182.44 31.91L182.44 31.91L182.44 36.72Q182.44 38.97 183.52 40.19Q184.60 41.40 186.58 41.40ZM205.27 46.13L205.27 27.68L201.94 27.68L201.94 22.50L205.27 22.50L205.27 19.71Q205.27 16.29 207.07 14.56Q208.87 12.83 212.34 12.83L212.34 12.83L216.66 12.83L216.66 18L211.93 18L211.93 22.50L216.66 22.50L216.66 27.68L211.93 27.68L211.93 46.13L205.27 46.13ZM234.59 46.13L230.63 46.13Q227.16 46.13 225.38 44.37Q223.61 42.62 223.61 39.24L223.61 39.24L223.61 27.68L220.28 27.68L220.28 22.50L221.94 22.50Q223.29 22.50 223.78 21.85Q224.28 21.20 224.28 19.98L224.28 19.98L224.28 16.11L230.27 16.11L230.27 22.50L234.95 22.50L234.95 27.68L230.27 27.68L230.27 40.95L234.59 40.95L234.59 46.13ZM245.95 46.13L239.33 22.50L245.77 22.50L248.06 32.04L249.68 39.24L249.86 39.24L251.75 32.04L254.45 22.50L260.53 22.50L263.27 32.04L265.21 39.24L265.39 39.24L267.00 32.04L269.30 22.50L275.47 22.50L268.94 46.13L261.97 46.13L259.09 36.13L257.42 30.02L257.29 30.02L255.67 36.13L252.79 46.13L245.95 46.13ZM301.95 46.13L298.26 46.13Q296.46 46.13 295.26 45Q294.07 43.88 293.76 41.98L293.76 41.98L293.49 41.98Q292.95 44.28 291.10 45.47Q289.26 46.66 286.56 46.66L286.56 46.66Q283.00 46.66 281.11 44.77Q279.22 42.88 279.22 39.78L279.22 39.78Q279.22 36.05 281.94 34.22Q284.67 32.40 289.35 32.40L289.35 32.40L293.08 32.40L293.08 30.91Q293.08 29.21 292.18 28.19Q291.28 27.18 289.17 27.18L289.17 27.18Q287.19 27.18 286.02 28.04Q284.85 28.89 284.08 29.97L284.08 29.97L280.12 26.46Q281.56 24.35 283.74 23.15Q285.93 21.96 289.66 21.96L289.66 21.96Q294.70 21.96 297.22 24.16Q299.74 26.37 299.74 30.60L299.74 30.60L299.74 40.95L301.95 40.95L301.95 46.13ZM289.03 42.03L289.03 42.03Q290.70 42.03 291.89 41.31Q293.08 40.59 293.08 38.97L293.08 38.97L293.08 36.18L289.84 36.18Q285.93 36.18 285.93 38.84L285.93 38.84L285.93 39.51Q285.93 40.81 286.74 41.42Q287.55 42.03 289.03 42.03ZM315.06 46.13L308.40 46.13L308.40 22.50L315.06 22.50L315.06 27.63L315.29 27.63Q315.47 26.64 315.92 25.72Q316.37 24.80 317.11 24.07Q317.85 23.36 318.89 22.93Q319.92 22.50 321.32 22.50L321.32 22.50L322.49 22.50L322.49 28.71L320.82 28.71Q317.90 28.71 316.48 29.48Q315.06 30.24 315.06 32.31L315.06 32.31L315.06 46.13ZM338.21 46.66L338.21 46.66Q335.51 46.66 333.40 45.79Q331.28 44.91 329.82 43.31Q328.36 41.72 327.61 39.42Q326.87 37.13 326.87 34.29L326.87 34.29Q326.87 31.50 327.59 29.23Q328.31 26.96 329.73 25.34Q331.15 23.71 333.22 22.84Q335.29 21.96 337.94 21.96L337.94 21.96Q340.87 21.96 342.96 22.95Q345.05 23.94 346.38 25.61Q347.71 27.27 348.31 29.45Q348.92 31.63 348.92 34.02L348.92 34.02L348.92 36L333.76 36L333.76 36.36Q333.76 38.70 335.02 40.07Q336.28 41.45 338.98 41.45L338.98 41.45Q341.05 41.45 342.35 40.61Q343.66 39.78 344.78 38.61L344.78 38.61L348.11 42.75Q346.54 44.59 343.99 45.63Q341.45 46.66 338.21 46.66ZM338.08 26.87L338.08 26.87Q336.05 26.87 334.90 28.19Q333.76 29.52 333.76 31.73L333.76 31.73L333.76 32.09L342.04 32.09L342.04 31.68Q342.04 29.52 341.07 28.19Q340.10 26.87 338.08 26.87Z" transform="translate(0, 0)"></path></g></svg></svg>