<?xml version="1.0" encoding="utf-8"?>
<!-- Generator: Adobe Illustrator 24.2.1, SVG Export Plug-In . SVG Version: 6.00 Build 0)  -->
<svg version="1.1" id="Layer_1" xmlns="http://www.w3.org/2000/svg" xmlns:xlink="http://www.w3.org/1999/xlink" x="0px" y="0px"
	 viewBox="0 0 450 450" style="enable-background:new 0 0 450 450;" xml:space="preserve">
<style type="text/css">
	.st0{fill:url(#SVGID_1_);}
</style>
<linearGradient id="SVGID_1_" gradientUnits="userSpaceOnUse" x1="299.2029" y1="927.8706" x2="144.1005" y2="659.2255" gradientTransform="matrix(1 0 0 1 0 -548)">
	<stop  offset="0" style="stop-color:#F11125"/>
	<stop  offset="1" style="stop-color:#FBDA3F"/>
</linearGradient>
<path class="st0" d="M262.1,233c0,0,26.9,1.8,31.5-21.4c4.4-21.7-5.8-33.4-5.8-33.4s31.9,6.5,51.9,38.2s21.9,81,2.7,115.4
	c-19.1,34.5-53.4,66.2-110.9,68.8s-100.5-34.8-116.2-60s-22.8-52-21.2-77.5c1.6-25.5,9.1-41.9,14.8-54.5s10.9-22.1,11.5-36.3
	s-1.8-21.3-4.7-24.9c0,0,18.7,4.1,29.4,17.6s11.8,21.7,11.1,31s-3.4,16.8-12,15.3c0,0,2.2,4.1,14.5,1.6
	c12.3-2.4,18.8-16.9,20.8-23.8c2-6.9,1.2-19.6-0.1-31.5c-1.4-11.9-1.1-30.1,4.1-45.5c5.1-15.4,18.3-30.2,31-40.6
	s34.1-18.4,58.3-16.8c0,0-11.6,5.9-18.6,22s-7.9,34.5-3.2,48.2s10.1,22.8,13.8,30.6s9.8,24,10.1,38.8
	C275.3,209,271.7,223.8,262.1,233z M227.7,199c0.5,6.8-1.7,16.2-6.7,23.9s-13.3,16.2-18.5,20s-15.1,10.1-23.6,19.3
	c-8.5,9.2-16.9,20.9-16.9,41.3s6.6,31,15.6,41.2s23.2,18.3,40.3,20.8c17.2,2.5,26.9-1.2,39.6-6.1c12.6-4.9,28.1-19.3,31.6-34.6
	c3.5-15.4,2.1-33-9.1-45.8s-19-11.9-19-11.9c8.6,13.8,10.3,34,4.4,51.1s-23.3,23.7-23.3,23.7s1.4-12.6-1.2-19.4
	c-2.7-6.9-6.3-11-11.9-19.3c-5.6-8.3-7.9-16.6-7.2-26.8c0.7-10.2,7.8-20.1,14.2-29.7s9.3-16.9,9.6-25.7c0.3-8.9-0.8-16.8-7.6-27.2
	s-15-14-15-14C224.6,182.1,227.3,192.2,227.7,199z"/>
</svg>
